<svg xmlns="http://www.w3.org/2000/svg" xmlns:xlink="http://www.w3.org/1999/xlink" class="httpgd" width="948.00" height="601.00" viewBox="0 0 758.40 480.80">
<defs>
  <style type='text/css'><![CDATA[
    .httpgd line, .httpgd polyline, .httpgd polygon, .httpgd path, .httpgd rect, .httpgd circle {
      fill: none;
      stroke: #000000;
      stroke-linecap: round;
      stroke-linejoin: round;
      stroke-miterlimit: 10.00;
    }
  ]]></style>
<clipPath id="c0"><rect x="0.00" y="0.00" width="758.40" height="480.80"/></clipPath>
<clipPath id="c1"><rect x="34.47" y="23.18" width="718.45" height="426.86"/></clipPath>
<clipPath id="c2"><rect x="0.00" y="0.00" width="758.40" height="480.80"/></clipPath>
</defs>
<rect width="100%" height="100%" style="stroke: none;fill: #FFFFFF;"/>
<g clip-path="url(#c0)">
<rect x="0.00" y="0.00" width="758.40" height="480.80" style="stroke-width: 1.07;stroke: #FFFFFF;fill: #FFFFFF;"/>
</g><g clip-path="url(#c1)">
<rect x="34.47" y="23.18" width="718.45" height="426.86" style="stroke-width: 1.07;stroke: none;fill: #FFFFFF;"/>
<polyline points="34.47,387.68 752.92,387.68" style="stroke-width: 0.53;stroke: #EBEBEB;stroke-linecap: butt;"/>
<polyline points="34.47,301.76 752.92,301.76" style="stroke-width: 0.53;stroke: #EBEBEB;stroke-linecap: butt;"/>
<polyline points="34.47,215.84 752.92,215.84" style="stroke-width: 0.53;stroke: #EBEBEB;stroke-linecap: butt;"/>
<polyline points="34.47,129.92 752.92,129.92" style="stroke-width: 0.53;stroke: #EBEBEB;stroke-linecap: butt;"/>
<polyline points="34.47,44.01 752.92,44.01" style="stroke-width: 0.53;stroke: #EBEBEB;stroke-linecap: butt;"/>
<polyline points="67.13,450.04 67.13,23.18" style="stroke-width: 0.53;stroke: #EBEBEB;stroke-linecap: butt;"/>
<polyline points="167.61,450.04 167.61,23.18" style="stroke-width: 0.53;stroke: #EBEBEB;stroke-linecap: butt;"/>
<polyline points="268.09,450.04 268.09,23.18" style="stroke-width: 0.53;stroke: #EBEBEB;stroke-linecap: butt;"/>
<polyline points="368.57,450.04 368.57,23.18" style="stroke-width: 0.53;stroke: #EBEBEB;stroke-linecap: butt;"/>
<polyline points="469.06,450.04 469.06,23.18" style="stroke-width: 0.53;stroke: #EBEBEB;stroke-linecap: butt;"/>
<polyline points="569.54,450.04 569.54,23.18" style="stroke-width: 0.53;stroke: #EBEBEB;stroke-linecap: butt;"/>
<polyline points="670.02,450.04 670.02,23.18" style="stroke-width: 0.53;stroke: #EBEBEB;stroke-linecap: butt;"/>
<polyline points="34.47,430.64 752.92,430.64" style="stroke-width: 1.07;stroke: #EBEBEB;stroke-linecap: butt;"/>
<polyline points="34.47,344.72 752.92,344.72" style="stroke-width: 1.07;stroke: #EBEBEB;stroke-linecap: butt;"/>
<polyline points="34.47,258.80 752.92,258.80" style="stroke-width: 1.07;stroke: #EBEBEB;stroke-linecap: butt;"/>
<polyline points="34.47,172.88 752.92,172.88" style="stroke-width: 1.07;stroke: #EBEBEB;stroke-linecap: butt;"/>
<polyline points="34.47,86.96 752.92,86.96" style="stroke-width: 1.07;stroke: #EBEBEB;stroke-linecap: butt;"/>
<polyline points="117.37,450.04 117.37,23.18" style="stroke-width: 1.07;stroke: #EBEBEB;stroke-linecap: butt;"/>
<polyline points="217.85,450.04 217.85,23.18" style="stroke-width: 1.07;stroke: #EBEBEB;stroke-linecap: butt;"/>
<polyline points="318.33,450.04 318.33,23.18" style="stroke-width: 1.07;stroke: #EBEBEB;stroke-linecap: butt;"/>
<polyline points="418.82,450.04 418.82,23.18" style="stroke-width: 1.07;stroke: #EBEBEB;stroke-linecap: butt;"/>
<polyline points="519.30,450.04 519.30,23.18" style="stroke-width: 1.07;stroke: #EBEBEB;stroke-linecap: butt;"/>
<polyline points="619.78,450.04 619.78,23.18" style="stroke-width: 1.07;stroke: #EBEBEB;stroke-linecap: butt;"/>
<polyline points="720.26,450.04 720.26,23.18" style="stroke-width: 1.07;stroke: #EBEBEB;stroke-linecap: butt;"/>
<polyline points="117.37,430.64 120.72,387.43 124.07,358.19 127.42,337.38 130.77,321.72 134.12,309.25 137.46,298.80 140.81,289.69 144.16,281.48 147.51,273.93 150.86,266.88 154.21,260.23 157.56,253.93 160.91,247.92 164.26,242.18 167.61,236.69 170.96,231.44 174.31,226.41 177.66,221.58 181.01,216.96 184.36,212.52 187.71,208.27 191.06,204.19 194.40,200.28 197.75,196.52 201.10,192.92 204.45,189.46 207.80,186.14 211.15,182.96 214.50,179.90 217.85,176.97 221.20,174.15 224.55,171.45 227.90,168.85 231.25,166.35 234.60,163.96 237.95,161.65 241.30,159.44 244.65,157.32 248.00,155.27 251.34,153.31 254.69,151.42 258.04,149.61 261.39,147.86 264.74,146.18 268.09,144.57 271.44,143.02 274.79,141.52 278.14,140.08 281.49,138.70 284.84,137.37 288.19,136.09 291.54,134.85 294.89,133.66 298.24,132.51 301.59,131.41 304.94,130.34 308.28,129.32 311.63,128.33 314.98,127.37 318.33,126.45 321.68,125.56 325.03,124.70 328.38,123.88 331.73,123.08 335.08,122.30 338.43,121.56 341.78,120.84 345.13,120.14 348.48,119.47 351.83,118.81 355.18,118.18 358.53,117.57 361.88,116.98 365.23,116.41 368.57,115.86 371.92,115.32 375.27,114.80 378.62,114.29 381.97,113.81 385.32,113.33 388.67,112.87 392.02,112.42 395.37,111.99 398.72,111.57 402.07,111.16 405.42,110.76 408.77,110.37 412.12,110.00 415.47,109.63 418.82,109.27 422.17,152.13 425.51,181.04 428.86,201.52 432.21,216.86 435.56,229.01 438.91,239.15 442.26,247.97 445.61,255.88 448.96,263.15 452.31,269.92 455.66,276.30 459.01,282.34 462.36,288.09 465.71,293.58 469.06,298.82 472.41,303.83 475.76,308.62 479.11,313.21 482.45,317.61 485.80,321.82 489.15,325.86 492.50,329.72 495.85,333.43 499.20,336.97 502.55,340.37 505.90,343.63 509.25,346.76 512.60,349.75 515.95,352.62 519.30,355.37 522.65,358.00 526.00,360.53 529.35,362.95 532.70,365.27 536.05,367.50 539.40,369.63 542.74,371.68 546.09,373.64 549.44,375.53 552.79,377.33 556.14,379.06 559.49,380.72 562.84,382.32 566.19,383.84 569.54,385.31 572.89,386.72 576.24,388.07 579.59,389.37 582.94,390.61 586.29,391.80 589.64,392.95 592.99,394.05 596.34,395.11 599.68,396.12 603.03,397.10 606.38,398.03 609.73,398.93 613.08,399.80 616.43,400.63 619.78,401.43 623.13,402.19 626.48,402.93 629.83,403.64 633.18,404.32 636.53,404.98 639.88,405.61 643.23,406.21 646.58,406.80 649.93,407.36 653.28,407.90 656.62,408.42 659.97,408.92 663.32,409.41 666.67,409.87 670.02,410.32 673.37,410.75 676.72,411.17 680.07,411.57 683.42,411.96 686.77,412.33 690.12,412.69 693.47,413.04 696.82,413.37 700.17,413.69 703.52,414.01 706.87,414.31 710.22,414.60 713.56,414.88 716.91,415.16 720.26,415.42" style="stroke-width: 1.49;stroke: #3FBFFF;stroke-linecap: butt;"/>
<polyline points="117.37,450.04 120.72,214.98 124.07,170.57 127.42,148.88 130.77,135.54 134.12,126.23 137.46,119.14 140.81,113.39 144.16,108.53 147.51,104.29 150.86,100.51 154.21,97.09 157.56,93.96 160.91,91.09 164.26,88.44 167.61,85.97 170.96,83.67 174.31,81.53 177.66,79.52 181.01,77.64 184.36,75.88 187.71,74.22 191.06,72.66 194.40,71.19 197.75,69.80 201.10,68.48 204.45,67.24 207.80,66.07 211.15,64.96 214.50,63.90 217.85,62.90 221.20,61.95 224.55,61.05 227.90,60.20 231.25,59.38 234.60,58.61 237.95,57.87 241.30,57.16 244.65,56.49 248.00,55.85 251.34,55.24 254.69,54.66 258.04,54.10 261.39,53.57 264.74,53.06 268.09,52.58 271.44,52.11 274.79,51.67 278.14,51.24 281.49,50.83 284.84,50.44 288.19,50.07 291.54,49.71 294.89,49.36 298.24,49.03 301.59,48.71 304.94,48.41 308.28,48.11 311.63,47.83 314.98,47.56 318.33,47.30 321.68,47.05 325.03,46.81 328.38,46.58 331.73,46.35 335.08,46.14 338.43,45.93 341.78,45.73 345.13,45.54 348.48,45.35 351.83,45.17 355.18,45.00 358.53,44.83 361.88,44.67 365.23,44.51 368.57,44.36 371.92,44.21 375.27,44.07 378.62,43.93 381.97,43.80 385.32,43.67 388.67,43.55 392.02,43.43 395.37,43.31 398.72,43.20 402.07,43.09 405.42,42.98 408.77,42.87 412.12,42.77 415.47,42.68 418.82,42.58 422.17,54.88 425.51,64.29 428.86,71.65 432.21,77.60 435.56,82.63 438.91,87.06 442.26,91.12 445.61,94.92 448.96,98.57 452.31,102.12 455.66,105.60 459.01,109.03 462.36,112.43 465.71,115.80 469.06,119.14 472.41,122.47 475.76,125.79 479.11,129.08 482.45,132.36 485.80,135.62 489.15,138.87 492.50,142.10 495.85,145.31 499.20,148.51 502.55,151.68 505.90,154.84 509.25,157.98 512.60,161.11 515.95,164.21 519.30,167.29 522.65,170.35 526.00,173.39 529.35,176.42 532.70,179.41 536.05,182.39 539.40,185.35 542.74,188.28 546.09,191.19 549.44,194.07 552.79,196.93 556.14,199.77 559.49,202.58 562.84,205.37 566.19,208.13 569.54,210.87 572.89,213.58 576.24,216.26 579.59,218.92 582.94,221.55 586.29,224.15 589.64,226.73 592.99,229.27 596.34,231.79 599.68,234.28 603.03,236.74 606.38,239.18 609.73,241.58 613.08,243.96 616.43,246.30 619.78,248.62 623.13,250.90 626.48,253.16 629.83,255.39 633.18,257.59 636.53,259.75 639.88,261.89 643.23,264.00 646.58,266.08 649.93,268.13 653.28,270.15 656.62,272.14 659.97,274.10 663.32,276.03 666.67,277.94 670.02,279.81 673.37,281.66 676.72,283.47 680.07,285.26 683.42,287.02 686.77,288.76 690.12,290.46 693.47,292.14 696.82,293.80 700.17,295.42 703.52,297.02 706.87,298.60 710.22,300.15 713.56,301.67 716.91,303.17 720.26,304.65" style="stroke-width: 1.49;stroke-linecap: butt;"/>
<rect x="34.47" y="23.18" width="718.45" height="426.86" style="stroke-width: 1.07;stroke: #333333;"/>
</g><g clip-path="url(#c2)">
<g><text x="29.54" y="433.50" text-anchor="end" style="font-family: Arial;font-size: 8.00px;fill: #4D4D4D;" textLength="11.12px" lengthAdjust="spacingAndGlyphs">0.0</text></g>
<g><text x="29.54" y="347.58" text-anchor="end" style="font-family: Arial;font-size: 8.00px;fill: #4D4D4D;" textLength="11.12px" lengthAdjust="spacingAndGlyphs">0.1</text></g>
<g><text x="29.54" y="261.67" text-anchor="end" style="font-family: Arial;font-size: 8.00px;fill: #4D4D4D;" textLength="11.12px" lengthAdjust="spacingAndGlyphs">0.2</text></g>
<g><text x="29.54" y="175.75" text-anchor="end" style="font-family: Arial;font-size: 8.00px;fill: #4D4D4D;" textLength="11.12px" lengthAdjust="spacingAndGlyphs">0.3</text></g>
<g><text x="29.54" y="89.83" text-anchor="end" style="font-family: Arial;font-size: 8.00px;fill: #4D4D4D;" textLength="11.12px" lengthAdjust="spacingAndGlyphs">0.4</text></g>
<polyline points="31.73,430.64 34.47,430.64" style="stroke-width: 1.07;stroke: #333333;stroke-linecap: butt;"/>
<polyline points="31.73,344.72 34.47,344.72" style="stroke-width: 1.07;stroke: #333333;stroke-linecap: butt;"/>
<polyline points="31.73,258.80 34.47,258.80" style="stroke-width: 1.07;stroke: #333333;stroke-linecap: butt;"/>
<polyline points="31.73,172.88 34.47,172.88" style="stroke-width: 1.07;stroke: #333333;stroke-linecap: butt;"/>
<polyline points="31.73,86.96 34.47,86.96" style="stroke-width: 1.07;stroke: #333333;stroke-linecap: butt;"/>
<polyline points="117.37,452.78 117.37,450.04" style="stroke-width: 1.07;stroke: #333333;stroke-linecap: butt;"/>
<polyline points="217.85,452.78 217.85,450.04" style="stroke-width: 1.07;stroke: #333333;stroke-linecap: butt;"/>
<polyline points="318.33,452.78 318.33,450.04" style="stroke-width: 1.07;stroke: #333333;stroke-linecap: butt;"/>
<polyline points="418.82,452.78 418.82,450.04" style="stroke-width: 1.07;stroke: #333333;stroke-linecap: butt;"/>
<polyline points="519.30,452.78 519.30,450.04" style="stroke-width: 1.07;stroke: #333333;stroke-linecap: butt;"/>
<polyline points="619.78,452.78 619.78,450.04" style="stroke-width: 1.07;stroke: #333333;stroke-linecap: butt;"/>
<polyline points="720.26,452.78 720.26,450.04" style="stroke-width: 1.07;stroke: #333333;stroke-linecap: butt;"/>
<g><text x="117.37" y="460.70" text-anchor="middle" style="font-family: Arial;font-size: 8.00px;fill: #4D4D4D;" textLength="4.45px" lengthAdjust="spacingAndGlyphs">0</text></g>
<g><text x="217.85" y="460.70" text-anchor="middle" style="font-family: Arial;font-size: 8.00px;fill: #4D4D4D;" textLength="11.12px" lengthAdjust="spacingAndGlyphs">0.5</text></g>
<g><text x="318.33" y="460.70" text-anchor="middle" style="font-family: Arial;font-size: 8.00px;fill: #4D4D4D;" textLength="4.45px" lengthAdjust="spacingAndGlyphs">1</text></g>
<g><text x="418.82" y="460.70" text-anchor="middle" style="font-family: Arial;font-size: 8.00px;fill: #4D4D4D;" textLength="11.12px" lengthAdjust="spacingAndGlyphs">1.5</text></g>
<g><text x="519.30" y="460.70" text-anchor="middle" style="font-family: Arial;font-size: 8.00px;fill: #4D4D4D;" textLength="4.45px" lengthAdjust="spacingAndGlyphs">2</text></g>
<g><text x="619.78" y="460.70" text-anchor="middle" style="font-family: Arial;font-size: 8.00px;fill: #4D4D4D;" textLength="11.12px" lengthAdjust="spacingAndGlyphs">2.5</text></g>
<g><text x="720.26" y="460.70" text-anchor="middle" style="font-family: Arial;font-size: 8.00px;fill: #4D4D4D;" textLength="4.45px" lengthAdjust="spacingAndGlyphs">3</text></g>
<g><text x="393.70" y="473.00" text-anchor="middle" style="font-family: Arial;font-size: 11.00px;" textLength="51.57px" lengthAdjust="spacingAndGlyphs">Tiempo [h]</text></g>
<g><text transform="translate(13.36,236.61) rotate(-90.00)" text-anchor="middle" style="font-family: Arial;font-size: 11.00px;" textLength="98.46px" lengthAdjust="spacingAndGlyphs">Concentracion [mM]</text></g>
<g><text x="34.47" y="14.93" style="font-family: Arial;font-size: 13.20px;" textLength="132.69px" lengthAdjust="spacingAndGlyphs">NAC AIJ sol 99.26 mM</text></g>
</g>
</svg>