<svg xmlns="http://www.w3.org/2000/svg" xmlns:xlink="http://www.w3.org/1999/xlink" class="httpgd" width="948.00" height="601.00" viewBox="0 0 758.40 480.80">
<defs>
  <style type='text/css'><![CDATA[
    .httpgd line, .httpgd polyline, .httpgd polygon, .httpgd path, .httpgd rect, .httpgd circle {
      fill: none;
      stroke: #000000;
      stroke-linecap: round;
      stroke-linejoin: round;
      stroke-miterlimit: 10.00;
    }
  ]]></style>
<clipPath id="c0"><rect x="0.00" y="0.00" width="758.40" height="480.80"/></clipPath>
<clipPath id="c1"><rect x="35.59" y="5.48" width="717.33" height="443.82"/></clipPath>
<clipPath id="c2"><rect x="0.00" y="0.00" width="758.40" height="480.80"/></clipPath>
</defs>
<rect width="100%" height="100%" style="stroke: none;fill: #FFFFFF;"/>
<g clip-path="url(#c0)">
<rect x="0.00" y="-0.00" width="758.40" height="480.80" style="stroke-width: 1.07;stroke: #FFFFFF;fill: #FFFFFF;"/>
</g><g clip-path="url(#c1)">
<rect x="35.59" y="5.48" width="717.33" height="443.82" style="stroke-width: 1.07;stroke: none;fill: #FFFFFF;"/>
<polyline points="35.59,442.85 752.92,442.85" style="stroke-width: 0.53;stroke: #EBEBEB;stroke-linecap: butt;"/>
<polyline points="35.59,330.83 752.92,330.83" style="stroke-width: 0.53;stroke: #EBEBEB;stroke-linecap: butt;"/>
<polyline points="35.59,218.82 752.92,218.82" style="stroke-width: 0.53;stroke: #EBEBEB;stroke-linecap: butt;"/>
<polyline points="35.59,106.80 752.92,106.80" style="stroke-width: 0.53;stroke: #EBEBEB;stroke-linecap: butt;"/>
<polyline points="172.62,449.30 172.62,5.48" style="stroke-width: 0.53;stroke: #EBEBEB;stroke-linecap: butt;"/>
<polyline points="343.11,449.30 343.11,5.48" style="stroke-width: 0.53;stroke: #EBEBEB;stroke-linecap: butt;"/>
<polyline points="513.60,449.30 513.60,5.48" style="stroke-width: 0.53;stroke: #EBEBEB;stroke-linecap: butt;"/>
<polyline points="684.09,449.30 684.09,5.48" style="stroke-width: 0.53;stroke: #EBEBEB;stroke-linecap: butt;"/>
<polyline points="35.59,386.84 752.92,386.84" style="stroke-width: 1.07;stroke: #EBEBEB;stroke-linecap: butt;"/>
<polyline points="35.59,274.83 752.92,274.83" style="stroke-width: 1.07;stroke: #EBEBEB;stroke-linecap: butt;"/>
<polyline points="35.59,162.81 752.92,162.81" style="stroke-width: 1.07;stroke: #EBEBEB;stroke-linecap: butt;"/>
<polyline points="35.59,50.80 752.92,50.80" style="stroke-width: 1.07;stroke: #EBEBEB;stroke-linecap: butt;"/>
<polyline points="87.37,449.30 87.37,5.48" style="stroke-width: 1.07;stroke: #EBEBEB;stroke-linecap: butt;"/>
<polyline points="257.86,449.30 257.86,5.48" style="stroke-width: 1.07;stroke: #EBEBEB;stroke-linecap: butt;"/>
<polyline points="428.35,449.30 428.35,5.48" style="stroke-width: 1.07;stroke: #EBEBEB;stroke-linecap: butt;"/>
<polyline points="598.84,449.30 598.84,5.48" style="stroke-width: 1.07;stroke: #EBEBEB;stroke-linecap: butt;"/>
<line x1="87.37" y1="355.43" x2="87.37" y2="339.16" style="stroke-width: 1.07;stroke-linecap: butt;"/>
<line x1="87.37" y1="376.04" x2="87.37" y2="386.58" style="stroke-width: 1.07;stroke-linecap: butt;"/>
<polygon points="68.19,355.43 68.19,376.04 106.55,376.04 106.55,355.43 68.19,355.43" style="stroke-width: 1.07;fill: #81D6DE;fill-opacity: 0.85;" />
<line x1="68.19" y1="357.58" x2="106.55" y2="357.58" style="stroke-width: 2.13;stroke-linecap: butt;"/>
<line x1="138.52" y1="143.54" x2="138.52" y2="139.10" style="stroke-width: 1.07;stroke-linecap: butt;"/>
<line x1="138.52" y1="180.02" x2="138.52" y2="201.03" style="stroke-width: 1.07;stroke-linecap: butt;"/>
<polygon points="119.34,143.54 119.34,180.02 157.70,180.02 157.70,143.54 119.34,143.54" style="stroke-width: 1.07;fill: #81D6DE;fill-opacity: 0.85;" />
<line x1="119.34" y1="169.21" x2="157.70" y2="169.21" style="stroke-width: 2.13;stroke-linecap: butt;"/>
<line x1="189.67" y1="33.76" x2="189.67" y2="32.87" style="stroke-width: 1.07;stroke-linecap: butt;"/>
<line x1="189.67" y1="88.38" x2="189.67" y2="124.63" style="stroke-width: 1.07;stroke-linecap: butt;"/>
<polygon points="170.49,33.76 170.49,88.38 208.85,88.38 208.85,33.76 170.49,33.76" style="stroke-width: 1.07;fill: #81D6DE;fill-opacity: 0.85;" />
<line x1="170.49" y1="37.86" x2="208.85" y2="37.86" style="stroke-width: 2.13;stroke-linecap: butt;"/>
<line x1="291.96" y1="98.69" x2="291.96" y2="96.22" style="stroke-width: 1.07;stroke-linecap: butt;"/>
<line x1="291.96" y1="134.49" x2="291.96" y2="161.55" style="stroke-width: 1.07;stroke-linecap: butt;"/>
<polygon points="272.78,98.69 272.78,134.49 311.14,134.49 311.14,98.69 272.78,98.69" style="stroke-width: 1.07;fill: #81D6DE;fill-opacity: 0.85;" />
<line x1="272.78" y1="107.87" x2="311.14" y2="107.87" style="stroke-width: 2.13;stroke-linecap: butt;"/>
<line x1="394.25" y1="135.68" x2="394.25" y2="119.57" style="stroke-width: 1.07;stroke-linecap: butt;"/>
<line x1="394.25" y1="173.56" x2="394.25" y2="194.66" style="stroke-width: 1.07;stroke-linecap: butt;"/>
<polygon points="375.07,135.68 375.07,173.56 413.43,173.56 413.43,135.68 375.07,135.68" style="stroke-width: 1.07;fill: #81D6DE;fill-opacity: 0.85;" />
<line x1="375.07" y1="150.75" x2="413.43" y2="150.75" style="stroke-width: 2.13;stroke-linecap: butt;"/>
<line x1="496.55" y1="188.30" x2="496.55" y2="174.70" style="stroke-width: 1.07;stroke-linecap: butt;"/>
<line x1="496.55" y1="213.53" x2="496.55" y2="230.69" style="stroke-width: 1.07;stroke-linecap: butt;"/>
<polygon points="477.37,188.30 477.37,213.53 515.73,213.53 515.73,188.30 477.37,188.30" style="stroke-width: 1.07;fill: #81D6DE;fill-opacity: 0.85;" />
<line x1="477.37" y1="201.47" x2="515.73" y2="201.47" style="stroke-width: 2.13;stroke-linecap: butt;"/>
<circle cx="701.13" cy="243.55" r="1.95" style="stroke-width: 0.71;fill: #000000;"/>
<line x1="701.13" y1="263.47" x2="701.13" y2="263.47" style="stroke-width: 1.07;stroke-linecap: butt;"/>
<line x1="701.13" y1="275.09" x2="701.13" y2="283.89" style="stroke-width: 1.07;stroke-linecap: butt;"/>
<polygon points="681.95,263.47 681.95,275.09 720.31,275.09 720.31,263.47 681.95,263.47" style="stroke-width: 1.07;fill: #81D6DE;fill-opacity: 0.85;" />
<line x1="681.95" y1="269.44" x2="720.31" y2="269.44" style="stroke-width: 2.13;stroke-linecap: butt;"/>
<circle cx="87.37" cy="429.13" r="1.95" style="stroke-width: 0.71;stroke: #000000;stroke-opacity: 0.29;fill: #000000;fill-opacity: 0.29;"/>
<line x1="87.37" y1="161.30" x2="87.37" y2="137.93" style="stroke-width: 1.07;stroke: #000000;stroke-opacity: 0.29;stroke-linecap: butt;"/>
<line x1="87.37" y1="221.08" x2="87.37" y2="221.08" style="stroke-width: 1.07;stroke: #000000;stroke-opacity: 0.29;stroke-linecap: butt;"/>
<polygon points="68.19,161.30 68.19,221.08 106.55,221.08 106.55,161.30 68.19,161.30" style="stroke-width: 1.07;stroke: #000000;stroke-opacity: 0.29;fill: #949494;fill-opacity: 0.67;" />
<line x1="68.19" y1="165.27" x2="106.55" y2="165.27" style="stroke-width: 2.13;stroke: #000000;stroke-opacity: 0.29;stroke-linecap: butt;"/>
<line x1="138.52" y1="46.65" x2="138.52" y2="45.64" style="stroke-width: 1.07;stroke: #000000;stroke-opacity: 0.29;stroke-linecap: butt;"/>
<line x1="138.52" y1="55.75" x2="138.52" y2="61.75" style="stroke-width: 1.07;stroke: #000000;stroke-opacity: 0.29;stroke-linecap: butt;"/>
<polygon points="119.34,46.65 119.34,55.75 157.70,55.75 157.70,46.65 119.34,46.65" style="stroke-width: 1.07;stroke: #000000;stroke-opacity: 0.29;fill: #949494;fill-opacity: 0.67;" />
<line x1="119.34" y1="52.90" x2="157.70" y2="52.90" style="stroke-width: 2.13;stroke: #000000;stroke-opacity: 0.29;stroke-linecap: butt;"/>
<line x1="189.67" y1="25.80" x2="189.67" y2="25.65" style="stroke-width: 1.07;stroke: #000000;stroke-opacity: 0.29;stroke-linecap: butt;"/>
<line x1="189.67" y1="35.21" x2="189.67" y2="42.46" style="stroke-width: 1.07;stroke: #000000;stroke-opacity: 0.29;stroke-linecap: butt;"/>
<polygon points="170.49,25.80 170.49,35.21 208.85,35.21 208.85,25.80 170.49,25.80" style="stroke-width: 1.07;stroke: #000000;stroke-opacity: 0.29;fill: #949494;fill-opacity: 0.67;" />
<line x1="170.49" y1="26.45" x2="208.85" y2="26.45" style="stroke-width: 2.13;stroke: #000000;stroke-opacity: 0.29;stroke-linecap: butt;"/>
<line x1="291.96" y1="37.18" x2="291.96" y2="36.70" style="stroke-width: 1.07;stroke: #000000;stroke-opacity: 0.29;stroke-linecap: butt;"/>
<line x1="291.96" y1="44.61" x2="291.96" y2="50.96" style="stroke-width: 1.07;stroke: #000000;stroke-opacity: 0.29;stroke-linecap: butt;"/>
<polygon points="272.78,37.18 272.78,44.61 311.14,44.61 311.14,37.18 272.78,37.18" style="stroke-width: 1.07;stroke: #000000;stroke-opacity: 0.29;fill: #949494;fill-opacity: 0.67;" />
<line x1="272.78" y1="38.99" x2="311.14" y2="38.99" style="stroke-width: 2.13;stroke: #000000;stroke-opacity: 0.29;stroke-linecap: butt;"/>
<line x1="394.25" y1="44.87" x2="394.25" y2="41.39" style="stroke-width: 1.07;stroke: #000000;stroke-opacity: 0.29;stroke-linecap: butt;"/>
<line x1="394.25" y1="54.03" x2="394.25" y2="59.86" style="stroke-width: 1.07;stroke: #000000;stroke-opacity: 0.29;stroke-linecap: butt;"/>
<polygon points="375.07,44.87 375.07,54.03 413.43,54.03 413.43,44.87 375.07,44.87" style="stroke-width: 1.07;stroke: #000000;stroke-opacity: 0.29;fill: #949494;fill-opacity: 0.67;" />
<line x1="375.07" y1="48.34" x2="413.43" y2="48.34" style="stroke-width: 2.13;stroke: #000000;stroke-opacity: 0.29;stroke-linecap: butt;"/>
<line x1="496.55" y1="58.04" x2="496.55" y2="54.33" style="stroke-width: 1.07;stroke: #000000;stroke-opacity: 0.29;stroke-linecap: butt;"/>
<line x1="496.55" y1="65.65" x2="496.55" y2="71.49" style="stroke-width: 1.07;stroke: #000000;stroke-opacity: 0.29;stroke-linecap: butt;"/>
<polygon points="477.37,58.04 477.37,65.65 515.73,65.65 515.73,58.04 477.37,58.04" style="stroke-width: 1.07;stroke: #000000;stroke-opacity: 0.29;fill: #949494;fill-opacity: 0.67;" />
<line x1="477.37" y1="61.88" x2="515.73" y2="61.88" style="stroke-width: 2.13;stroke: #000000;stroke-opacity: 0.29;stroke-linecap: butt;"/>
<circle cx="701.13" cy="76.30" r="1.95" style="stroke-width: 0.71;stroke: #000000;stroke-opacity: 0.29;fill: #000000;fill-opacity: 0.29;"/>
<line x1="701.13" y1="84.69" x2="701.13" y2="84.69" style="stroke-width: 1.07;stroke: #000000;stroke-opacity: 0.29;stroke-linecap: butt;"/>
<line x1="701.13" y1="90.23" x2="701.13" y2="94.82" style="stroke-width: 1.07;stroke: #000000;stroke-opacity: 0.29;stroke-linecap: butt;"/>
<polygon points="681.95,84.69 681.95,90.23 720.31,90.23 720.31,84.69 681.95,84.69" style="stroke-width: 1.07;stroke: #000000;stroke-opacity: 0.29;fill: #949494;fill-opacity: 0.67;" />
<line x1="681.95" y1="87.47" x2="720.31" y2="87.47" style="stroke-width: 2.13;stroke: #000000;stroke-opacity: 0.29;stroke-linecap: butt;"/>
<circle cx="87.37" cy="339.16" r="4.62" style="stroke-width: 0.71;stroke: #5C6BB4;stroke-opacity: 0.50;fill: #5C6BB4;fill-opacity: 0.50;"/>
<circle cx="87.37" cy="376.04" r="4.62" style="stroke-width: 0.71;stroke: #5C6BB4;stroke-opacity: 0.50;fill: #5C6BB4;fill-opacity: 0.50;"/>
<circle cx="87.37" cy="357.58" r="4.62" style="stroke-width: 0.71;stroke: #5C6BB4;stroke-opacity: 0.50;fill: #5C6BB4;fill-opacity: 0.50;"/>
<circle cx="87.37" cy="386.58" r="4.62" style="stroke-width: 0.71;stroke: #5C6BB4;stroke-opacity: 0.50;fill: #5C6BB4;fill-opacity: 0.50;"/>
<circle cx="87.37" cy="355.43" r="4.62" style="stroke-width: 0.71;stroke: #5C6BB4;stroke-opacity: 0.50;fill: #5C6BB4;fill-opacity: 0.50;"/>
<circle cx="138.52" cy="169.21" r="4.62" style="stroke-width: 0.71;stroke: #5C6BB4;stroke-opacity: 0.50;fill: #5C6BB4;fill-opacity: 0.50;"/>
<circle cx="138.52" cy="201.03" r="4.62" style="stroke-width: 0.71;stroke: #5C6BB4;stroke-opacity: 0.50;fill: #5C6BB4;fill-opacity: 0.50;"/>
<circle cx="138.52" cy="139.10" r="4.62" style="stroke-width: 0.71;stroke: #5C6BB4;stroke-opacity: 0.50;fill: #5C6BB4;fill-opacity: 0.50;"/>
<circle cx="138.52" cy="143.54" r="4.62" style="stroke-width: 0.71;stroke: #5C6BB4;stroke-opacity: 0.50;fill: #5C6BB4;fill-opacity: 0.50;"/>
<circle cx="138.52" cy="180.02" r="4.62" style="stroke-width: 0.71;stroke: #5C6BB4;stroke-opacity: 0.50;fill: #5C6BB4;fill-opacity: 0.50;"/>
<circle cx="189.67" cy="124.63" r="4.62" style="stroke-width: 0.71;stroke: #5C6BB4;stroke-opacity: 0.50;fill: #5C6BB4;fill-opacity: 0.50;"/>
<circle cx="189.67" cy="88.38" r="4.62" style="stroke-width: 0.71;stroke: #5C6BB4;stroke-opacity: 0.50;fill: #5C6BB4;fill-opacity: 0.50;"/>
<circle cx="189.67" cy="32.87" r="4.62" style="stroke-width: 0.71;stroke: #5C6BB4;stroke-opacity: 0.50;fill: #5C6BB4;fill-opacity: 0.50;"/>
<circle cx="189.67" cy="33.76" r="4.62" style="stroke-width: 0.71;stroke: #5C6BB4;stroke-opacity: 0.50;fill: #5C6BB4;fill-opacity: 0.50;"/>
<circle cx="189.67" cy="37.86" r="4.62" style="stroke-width: 0.71;stroke: #5C6BB4;stroke-opacity: 0.50;fill: #5C6BB4;fill-opacity: 0.50;"/>
<circle cx="291.96" cy="161.55" r="4.62" style="stroke-width: 0.71;stroke: #5C6BB4;stroke-opacity: 0.50;fill: #5C6BB4;fill-opacity: 0.50;"/>
<circle cx="291.96" cy="98.69" r="4.62" style="stroke-width: 0.71;stroke: #5C6BB4;stroke-opacity: 0.50;fill: #5C6BB4;fill-opacity: 0.50;"/>
<circle cx="291.96" cy="134.49" r="4.62" style="stroke-width: 0.71;stroke: #5C6BB4;stroke-opacity: 0.50;fill: #5C6BB4;fill-opacity: 0.50;"/>
<circle cx="291.96" cy="107.87" r="4.62" style="stroke-width: 0.71;stroke: #5C6BB4;stroke-opacity: 0.50;fill: #5C6BB4;fill-opacity: 0.50;"/>
<circle cx="291.96" cy="96.22" r="4.62" style="stroke-width: 0.71;stroke: #5C6BB4;stroke-opacity: 0.50;fill: #5C6BB4;fill-opacity: 0.50;"/>
<circle cx="394.25" cy="173.56" r="4.62" style="stroke-width: 0.71;stroke: #5C6BB4;stroke-opacity: 0.50;fill: #5C6BB4;fill-opacity: 0.50;"/>
<circle cx="394.25" cy="119.57" r="4.62" style="stroke-width: 0.71;stroke: #5C6BB4;stroke-opacity: 0.50;fill: #5C6BB4;fill-opacity: 0.50;"/>
<circle cx="394.25" cy="194.66" r="4.62" style="stroke-width: 0.71;stroke: #5C6BB4;stroke-opacity: 0.50;fill: #5C6BB4;fill-opacity: 0.50;"/>
<circle cx="394.25" cy="150.75" r="4.62" style="stroke-width: 0.71;stroke: #5C6BB4;stroke-opacity: 0.50;fill: #5C6BB4;fill-opacity: 0.50;"/>
<circle cx="394.25" cy="135.68" r="4.62" style="stroke-width: 0.71;stroke: #5C6BB4;stroke-opacity: 0.50;fill: #5C6BB4;fill-opacity: 0.50;"/>
<circle cx="496.55" cy="201.47" r="4.62" style="stroke-width: 0.71;stroke: #5C6BB4;stroke-opacity: 0.50;fill: #5C6BB4;fill-opacity: 0.50;"/>
<circle cx="496.55" cy="188.30" r="4.62" style="stroke-width: 0.71;stroke: #5C6BB4;stroke-opacity: 0.50;fill: #5C6BB4;fill-opacity: 0.50;"/>
<circle cx="496.55" cy="230.69" r="4.62" style="stroke-width: 0.71;stroke: #5C6BB4;stroke-opacity: 0.50;fill: #5C6BB4;fill-opacity: 0.50;"/>
<circle cx="496.55" cy="213.53" r="4.62" style="stroke-width: 0.71;stroke: #5C6BB4;stroke-opacity: 0.50;fill: #5C6BB4;fill-opacity: 0.50;"/>
<circle cx="496.55" cy="174.70" r="4.62" style="stroke-width: 0.71;stroke: #5C6BB4;stroke-opacity: 0.50;fill: #5C6BB4;fill-opacity: 0.50;"/>
<circle cx="701.13" cy="243.55" r="4.62" style="stroke-width: 0.71;stroke: #5C6BB4;stroke-opacity: 0.50;fill: #5C6BB4;fill-opacity: 0.50;"/>
<circle cx="701.13" cy="269.44" r="4.62" style="stroke-width: 0.71;stroke: #5C6BB4;stroke-opacity: 0.50;fill: #5C6BB4;fill-opacity: 0.50;"/>
<circle cx="701.13" cy="275.09" r="4.62" style="stroke-width: 0.71;stroke: #5C6BB4;stroke-opacity: 0.50;fill: #5C6BB4;fill-opacity: 0.50;"/>
<circle cx="701.13" cy="283.89" r="4.62" style="stroke-width: 0.71;stroke: #5C6BB4;stroke-opacity: 0.50;fill: #5C6BB4;fill-opacity: 0.50;"/>
<circle cx="701.13" cy="263.47" r="4.62" style="stroke-width: 0.71;stroke: #5C6BB4;stroke-opacity: 0.50;fill: #5C6BB4;fill-opacity: 0.50;"/>
<circle cx="87.37" cy="137.93" r="5.69" style="stroke-width: 0.71;stroke: #000000;stroke-opacity: 0.20;fill: #000000;fill-opacity: 0.20;"/>
<circle cx="87.37" cy="221.08" r="5.69" style="stroke-width: 0.71;stroke: #000000;stroke-opacity: 0.20;fill: #000000;fill-opacity: 0.20;"/>
<circle cx="87.37" cy="165.27" r="5.69" style="stroke-width: 0.71;stroke: #000000;stroke-opacity: 0.20;fill: #000000;fill-opacity: 0.20;"/>
<circle cx="87.37" cy="429.13" r="5.69" style="stroke-width: 0.71;stroke: #000000;stroke-opacity: 0.20;fill: #000000;fill-opacity: 0.20;"/>
<circle cx="87.37" cy="161.30" r="5.69" style="stroke-width: 0.71;stroke: #000000;stroke-opacity: 0.20;fill: #000000;fill-opacity: 0.20;"/>
<circle cx="138.52" cy="52.90" r="5.69" style="stroke-width: 0.71;stroke: #000000;stroke-opacity: 0.20;fill: #000000;fill-opacity: 0.20;"/>
<circle cx="138.52" cy="61.75" r="5.69" style="stroke-width: 0.71;stroke: #000000;stroke-opacity: 0.20;fill: #000000;fill-opacity: 0.20;"/>
<circle cx="138.52" cy="45.64" r="5.69" style="stroke-width: 0.71;stroke: #000000;stroke-opacity: 0.20;fill: #000000;fill-opacity: 0.20;"/>
<circle cx="138.52" cy="46.65" r="5.69" style="stroke-width: 0.71;stroke: #000000;stroke-opacity: 0.20;fill: #000000;fill-opacity: 0.20;"/>
<circle cx="138.52" cy="55.75" r="5.69" style="stroke-width: 0.71;stroke: #000000;stroke-opacity: 0.20;fill: #000000;fill-opacity: 0.20;"/>
<circle cx="189.67" cy="42.46" r="5.69" style="stroke-width: 0.71;stroke: #000000;stroke-opacity: 0.20;fill: #000000;fill-opacity: 0.20;"/>
<circle cx="189.67" cy="35.21" r="5.69" style="stroke-width: 0.71;stroke: #000000;stroke-opacity: 0.20;fill: #000000;fill-opacity: 0.20;"/>
<circle cx="189.67" cy="25.65" r="5.69" style="stroke-width: 0.71;stroke: #000000;stroke-opacity: 0.20;fill: #000000;fill-opacity: 0.20;"/>
<circle cx="189.67" cy="25.80" r="5.69" style="stroke-width: 0.71;stroke: #000000;stroke-opacity: 0.20;fill: #000000;fill-opacity: 0.20;"/>
<circle cx="189.67" cy="26.45" r="5.69" style="stroke-width: 0.71;stroke: #000000;stroke-opacity: 0.20;fill: #000000;fill-opacity: 0.20;"/>
<circle cx="291.96" cy="50.96" r="5.69" style="stroke-width: 0.71;stroke: #000000;stroke-opacity: 0.20;fill: #000000;fill-opacity: 0.20;"/>
<circle cx="291.96" cy="37.18" r="5.69" style="stroke-width: 0.71;stroke: #000000;stroke-opacity: 0.20;fill: #000000;fill-opacity: 0.20;"/>
<circle cx="291.96" cy="44.61" r="5.69" style="stroke-width: 0.71;stroke: #000000;stroke-opacity: 0.20;fill: #000000;fill-opacity: 0.20;"/>
<circle cx="291.96" cy="38.99" r="5.69" style="stroke-width: 0.71;stroke: #000000;stroke-opacity: 0.20;fill: #000000;fill-opacity: 0.20;"/>
<circle cx="291.96" cy="36.70" r="5.69" style="stroke-width: 0.71;stroke: #000000;stroke-opacity: 0.20;fill: #000000;fill-opacity: 0.20;"/>
<circle cx="394.25" cy="54.03" r="5.69" style="stroke-width: 0.71;stroke: #000000;stroke-opacity: 0.20;fill: #000000;fill-opacity: 0.20;"/>
<circle cx="394.25" cy="41.39" r="5.69" style="stroke-width: 0.71;stroke: #000000;stroke-opacity: 0.20;fill: #000000;fill-opacity: 0.20;"/>
<circle cx="394.25" cy="59.86" r="5.69" style="stroke-width: 0.71;stroke: #000000;stroke-opacity: 0.20;fill: #000000;fill-opacity: 0.20;"/>
<circle cx="394.25" cy="48.34" r="5.69" style="stroke-width: 0.71;stroke: #000000;stroke-opacity: 0.20;fill: #000000;fill-opacity: 0.20;"/>
<circle cx="394.25" cy="44.87" r="5.69" style="stroke-width: 0.71;stroke: #000000;stroke-opacity: 0.20;fill: #000000;fill-opacity: 0.20;"/>
<circle cx="496.55" cy="61.88" r="5.69" style="stroke-width: 0.71;stroke: #000000;stroke-opacity: 0.20;fill: #000000;fill-opacity: 0.20;"/>
<circle cx="496.55" cy="58.04" r="5.69" style="stroke-width: 0.71;stroke: #000000;stroke-opacity: 0.20;fill: #000000;fill-opacity: 0.20;"/>
<circle cx="496.55" cy="71.49" r="5.69" style="stroke-width: 0.71;stroke: #000000;stroke-opacity: 0.20;fill: #000000;fill-opacity: 0.20;"/>
<circle cx="496.55" cy="65.65" r="5.69" style="stroke-width: 0.71;stroke: #000000;stroke-opacity: 0.20;fill: #000000;fill-opacity: 0.20;"/>
<circle cx="496.55" cy="54.33" r="5.69" style="stroke-width: 0.71;stroke: #000000;stroke-opacity: 0.20;fill: #000000;fill-opacity: 0.20;"/>
<circle cx="701.13" cy="76.30" r="5.69" style="stroke-width: 0.71;stroke: #000000;stroke-opacity: 0.20;fill: #000000;fill-opacity: 0.20;"/>
<circle cx="701.13" cy="87.47" r="5.69" style="stroke-width: 0.71;stroke: #000000;stroke-opacity: 0.20;fill: #000000;fill-opacity: 0.20;"/>
<circle cx="701.13" cy="90.23" r="5.69" style="stroke-width: 0.71;stroke: #000000;stroke-opacity: 0.20;fill: #000000;fill-opacity: 0.20;"/>
<circle cx="701.13" cy="94.82" r="5.69" style="stroke-width: 0.71;stroke: #000000;stroke-opacity: 0.20;fill: #000000;fill-opacity: 0.20;"/>
<circle cx="701.13" cy="84.69" r="5.69" style="stroke-width: 0.71;stroke: #000000;stroke-opacity: 0.20;fill: #000000;fill-opacity: 0.20;"/>
<rect x="35.59" y="5.48" width="717.33" height="443.82" style="stroke-width: 1.07;stroke: #333333;"/>
</g><g clip-path="url(#c2)">
<g><text x="30.65" y="389.99" text-anchor="end" style="font-family: Arial;font-size: 8.80px;fill: #4D4D4D;" textLength="12.24px" lengthAdjust="spacingAndGlyphs">0.0</text></g>
<g><text x="30.65" y="277.98" text-anchor="end" style="font-family: Arial;font-size: 8.80px;fill: #4D4D4D;" textLength="12.24px" lengthAdjust="spacingAndGlyphs">0.2</text></g>
<g><text x="30.65" y="165.96" text-anchor="end" style="font-family: Arial;font-size: 8.80px;fill: #4D4D4D;" textLength="12.24px" lengthAdjust="spacingAndGlyphs">0.4</text></g>
<g><text x="30.65" y="53.95" text-anchor="end" style="font-family: Arial;font-size: 8.80px;fill: #4D4D4D;" textLength="12.24px" lengthAdjust="spacingAndGlyphs">0.6</text></g>
<polyline points="32.85,386.84 35.59,386.84" style="stroke-width: 1.07;stroke: #333333;stroke-linecap: butt;"/>
<polyline points="32.85,274.83 35.59,274.83" style="stroke-width: 1.07;stroke: #333333;stroke-linecap: butt;"/>
<polyline points="32.85,162.81 35.59,162.81" style="stroke-width: 1.07;stroke: #333333;stroke-linecap: butt;"/>
<polyline points="32.85,50.80 35.59,50.80" style="stroke-width: 1.07;stroke: #333333;stroke-linecap: butt;"/>
<polyline points="87.37,452.04 87.37,449.30" style="stroke-width: 1.07;stroke: #333333;stroke-linecap: butt;"/>
<polyline points="257.86,452.04 257.86,449.30" style="stroke-width: 1.07;stroke: #333333;stroke-linecap: butt;"/>
<polyline points="428.35,452.04 428.35,449.30" style="stroke-width: 1.07;stroke: #333333;stroke-linecap: butt;"/>
<polyline points="598.84,452.04 598.84,449.30" style="stroke-width: 1.07;stroke: #333333;stroke-linecap: butt;"/>
<g><text x="87.37" y="460.54" text-anchor="middle" style="font-family: Arial;font-size: 8.80px;fill: #4D4D4D;" textLength="4.90px" lengthAdjust="spacingAndGlyphs">0</text></g>
<g><text x="257.86" y="460.54" text-anchor="middle" style="font-family: Arial;font-size: 8.80px;fill: #4D4D4D;" textLength="9.79px" lengthAdjust="spacingAndGlyphs">50</text></g>
<g><text x="428.35" y="460.54" text-anchor="middle" style="font-family: Arial;font-size: 8.80px;fill: #4D4D4D;" textLength="14.69px" lengthAdjust="spacingAndGlyphs">100</text></g>
<g><text x="598.84" y="460.54" text-anchor="middle" style="font-family: Arial;font-size: 8.80px;fill: #4D4D4D;" textLength="14.69px" lengthAdjust="spacingAndGlyphs">150</text></g>
<g><text x="394.25" y="473.00" text-anchor="middle" style="font-family: Arial;font-size: 11.00px;" textLength="50.94px" lengthAdjust="spacingAndGlyphs">Time [min]</text></g>
<g><text transform="translate(13.36,227.39) rotate(-90.00)" text-anchor="middle" style="font-family: Arial;font-size: 11.00px;" textLength="96.02px" lengthAdjust="spacingAndGlyphs">Concentration [mM]</text></g>
</g>
</svg>